<?xml version="1.0" encoding="utf-8" standalone="no"?>
<!DOCTYPE svg PUBLIC "-//W3C//DTD SVG 1.1//EN"
  "http://www.w3.org/Graphics/SVG/1.1/DTD/svg11.dtd">
<!-- Created with matplotlib (http://matplotlib.org/) -->
<svg height="576pt" version="1.1" viewBox="0 0 576 576" width="576pt" xmlns="http://www.w3.org/2000/svg" xmlns:xlink="http://www.w3.org/1999/xlink">
 <defs>
  <style type="text/css">
*{stroke-linecap:butt;stroke-linejoin:round;}
  </style>
 </defs>
 <g id="figure_1">
  <g id="patch_1">
   <path d="M 0 576 
L 576 576 
L 576 0 
L 0 0 
z
" style="fill:#ffffff;"/>
  </g>
  <g id="axes_1">
   <g id="patch_2">
    <path d="M 72 512.64 
L 518.4 512.64 
L 518.4 69.12 
L 72 69.12 
z
" style="fill:#ffffff;"/>
   </g>
   <g id="matplotlib.axis_1">
    <g id="xtick_1">
     <g id="line2d_1">
      <path clip-path="url(#p951aebd81e)" d="M 92.290909 512.64 
L 92.290909 69.12 
" style="fill:none;stroke:#b0b0b0;stroke-linecap:square;stroke-width:0.8;"/>
     </g>
     <g id="line2d_2">
      <defs>
       <path d="M 0 0 
L 0 3.5 
" id="m3d787d7f30" style="stroke:#000000;stroke-width:0.8;"/>
      </defs>
      <g>
       <use style="stroke:#000000;stroke-width:0.8;" x="92.290909" xlink:href="#m3d787d7f30" y="512.64"/>
      </g>
     </g>
     <g id="text_1">
      <!-- −50 -->
      <defs>
       <path d="M 10.59375 35.5 
L 73.1875 35.5 
L 73.1875 27.203125 
L 10.59375 27.203125 
z
" id="DejaVuSans-2212"/>
       <path d="M 10.796875 72.90625 
L 49.515625 72.90625 
L 49.515625 64.59375 
L 19.828125 64.59375 
L 19.828125 46.734375 
Q 21.96875 47.46875 24.109375 47.828125 
Q 26.265625 48.1875 28.421875 48.1875 
Q 40.625 48.1875 47.75 41.5 
Q 54.890625 34.8125 54.890625 23.390625 
Q 54.890625 11.625 47.5625 5.09375 
Q 40.234375 -1.421875 26.90625 -1.421875 
Q 22.3125 -1.421875 17.546875 -0.640625 
Q 12.796875 0.140625 7.71875 1.703125 
L 7.71875 11.625 
Q 12.109375 9.234375 16.796875 8.0625 
Q 21.484375 6.890625 26.703125 6.890625 
Q 35.15625 6.890625 40.078125 11.328125 
Q 45.015625 15.765625 45.015625 23.390625 
Q 45.015625 31 40.078125 35.4375 
Q 35.15625 39.890625 26.703125 39.890625 
Q 22.75 39.890625 18.8125 39.015625 
Q 14.890625 38.140625 10.796875 36.28125 
z
" id="DejaVuSans-35"/>
       <path d="M 31.78125 66.40625 
Q 24.171875 66.40625 20.328125 58.90625 
Q 16.5 51.421875 16.5 36.375 
Q 16.5 21.390625 20.328125 13.890625 
Q 24.171875 6.390625 31.78125 6.390625 
Q 39.453125 6.390625 43.28125 13.890625 
Q 47.125 21.390625 47.125 36.375 
Q 47.125 51.421875 43.28125 58.90625 
Q 39.453125 66.40625 31.78125 66.40625 
z
M 31.78125 74.21875 
Q 44.046875 74.21875 50.515625 64.515625 
Q 56.984375 54.828125 56.984375 36.375 
Q 56.984375 17.96875 50.515625 8.265625 
Q 44.046875 -1.421875 31.78125 -1.421875 
Q 19.53125 -1.421875 13.0625 8.265625 
Q 6.59375 17.96875 6.59375 36.375 
Q 6.59375 54.828125 13.0625 64.515625 
Q 19.53125 74.21875 31.78125 74.21875 
z
" id="DejaVuSans-30"/>
      </defs>
      <g transform="translate(60.633878 542.435313)scale(0.3 -0.3)">
       <use xlink:href="#DejaVuSans-2212"/>
       <use x="83.789062" xlink:href="#DejaVuSans-35"/>
       <use x="147.412109" xlink:href="#DejaVuSans-30"/>
      </g>
     </g>
    </g>
    <g id="xtick_2">
     <g id="line2d_3">
      <path clip-path="url(#p951aebd81e)" d="M 195.859091 512.64 
L 195.859091 69.12 
" style="fill:none;stroke:#b0b0b0;stroke-linecap:square;stroke-width:0.8;"/>
     </g>
     <g id="line2d_4">
      <g>
       <use style="stroke:#000000;stroke-width:0.8;" x="195.859091" xlink:href="#m3d787d7f30" y="512.64"/>
      </g>
     </g>
     <g id="text_2">
      <!-- −40 -->
      <defs>
       <path d="M 37.796875 64.3125 
L 12.890625 25.390625 
L 37.796875 25.390625 
z
M 35.203125 72.90625 
L 47.609375 72.90625 
L 47.609375 25.390625 
L 58.015625 25.390625 
L 58.015625 17.1875 
L 47.609375 17.1875 
L 47.609375 0 
L 37.796875 0 
L 37.796875 17.1875 
L 4.890625 17.1875 
L 4.890625 26.703125 
z
" id="DejaVuSans-34"/>
      </defs>
      <g transform="translate(164.20206 542.435313)scale(0.3 -0.3)">
       <use xlink:href="#DejaVuSans-2212"/>
       <use x="83.789062" xlink:href="#DejaVuSans-34"/>
       <use x="147.412109" xlink:href="#DejaVuSans-30"/>
      </g>
     </g>
    </g>
    <g id="xtick_3">
     <g id="line2d_5">
      <path clip-path="url(#p951aebd81e)" d="M 299.427273 512.64 
L 299.427273 69.12 
" style="fill:none;stroke:#b0b0b0;stroke-linecap:square;stroke-width:0.8;"/>
     </g>
     <g id="line2d_6">
      <g>
       <use style="stroke:#000000;stroke-width:0.8;" x="299.427273" xlink:href="#m3d787d7f30" y="512.64"/>
      </g>
     </g>
     <g id="text_3">
      <!-- −30 -->
      <defs>
       <path d="M 40.578125 39.3125 
Q 47.65625 37.796875 51.625 33 
Q 55.609375 28.21875 55.609375 21.1875 
Q 55.609375 10.40625 48.1875 4.484375 
Q 40.765625 -1.421875 27.09375 -1.421875 
Q 22.515625 -1.421875 17.65625 -0.515625 
Q 12.796875 0.390625 7.625 2.203125 
L 7.625 11.71875 
Q 11.71875 9.328125 16.59375 8.109375 
Q 21.484375 6.890625 26.8125 6.890625 
Q 36.078125 6.890625 40.9375 10.546875 
Q 45.796875 14.203125 45.796875 21.1875 
Q 45.796875 27.640625 41.28125 31.265625 
Q 36.765625 34.90625 28.71875 34.90625 
L 20.21875 34.90625 
L 20.21875 43.015625 
L 29.109375 43.015625 
Q 36.375 43.015625 40.234375 45.921875 
Q 44.09375 48.828125 44.09375 54.296875 
Q 44.09375 59.90625 40.109375 62.90625 
Q 36.140625 65.921875 28.71875 65.921875 
Q 24.65625 65.921875 20.015625 65.03125 
Q 15.375 64.15625 9.8125 62.3125 
L 9.8125 71.09375 
Q 15.4375 72.65625 20.34375 73.4375 
Q 25.25 74.21875 29.59375 74.21875 
Q 40.828125 74.21875 47.359375 69.109375 
Q 53.90625 64.015625 53.90625 55.328125 
Q 53.90625 49.265625 50.4375 45.09375 
Q 46.96875 40.921875 40.578125 39.3125 
z
" id="DejaVuSans-33"/>
      </defs>
      <g transform="translate(267.770241 542.435313)scale(0.3 -0.3)">
       <use xlink:href="#DejaVuSans-2212"/>
       <use x="83.789062" xlink:href="#DejaVuSans-33"/>
       <use x="147.412109" xlink:href="#DejaVuSans-30"/>
      </g>
     </g>
    </g>
    <g id="xtick_4">
     <g id="line2d_7">
      <path clip-path="url(#p951aebd81e)" d="M 402.995455 512.64 
L 402.995455 69.12 
" style="fill:none;stroke:#b0b0b0;stroke-linecap:square;stroke-width:0.8;"/>
     </g>
     <g id="line2d_8">
      <g>
       <use style="stroke:#000000;stroke-width:0.8;" x="402.995455" xlink:href="#m3d787d7f30" y="512.64"/>
      </g>
     </g>
     <g id="text_4">
      <!-- −20 -->
      <defs>
       <path d="M 19.1875 8.296875 
L 53.609375 8.296875 
L 53.609375 0 
L 7.328125 0 
L 7.328125 8.296875 
Q 12.9375 14.109375 22.625 23.890625 
Q 32.328125 33.6875 34.8125 36.53125 
Q 39.546875 41.84375 41.421875 45.53125 
Q 43.3125 49.21875 43.3125 52.78125 
Q 43.3125 58.59375 39.234375 62.25 
Q 35.15625 65.921875 28.609375 65.921875 
Q 23.96875 65.921875 18.8125 64.3125 
Q 13.671875 62.703125 7.8125 59.421875 
L 7.8125 69.390625 
Q 13.765625 71.78125 18.9375 73 
Q 24.125 74.21875 28.421875 74.21875 
Q 39.75 74.21875 46.484375 68.546875 
Q 53.21875 62.890625 53.21875 53.421875 
Q 53.21875 48.921875 51.53125 44.890625 
Q 49.859375 40.875 45.40625 35.40625 
Q 44.1875 33.984375 37.640625 27.21875 
Q 31.109375 20.453125 19.1875 8.296875 
z
" id="DejaVuSans-32"/>
      </defs>
      <g transform="translate(371.338423 542.435313)scale(0.3 -0.3)">
       <use xlink:href="#DejaVuSans-2212"/>
       <use x="83.789062" xlink:href="#DejaVuSans-32"/>
       <use x="147.412109" xlink:href="#DejaVuSans-30"/>
      </g>
     </g>
    </g>
    <g id="xtick_5">
     <g id="line2d_9">
      <path clip-path="url(#p951aebd81e)" d="M 506.563636 512.64 
L 506.563636 69.12 
" style="fill:none;stroke:#b0b0b0;stroke-linecap:square;stroke-width:0.8;"/>
     </g>
     <g id="line2d_10">
      <g>
       <use style="stroke:#000000;stroke-width:0.8;" x="506.563636" xlink:href="#m3d787d7f30" y="512.64"/>
      </g>
     </g>
     <g id="text_5">
      <!-- −10 -->
      <defs>
       <path d="M 12.40625 8.296875 
L 28.515625 8.296875 
L 28.515625 63.921875 
L 10.984375 60.40625 
L 10.984375 69.390625 
L 28.421875 72.90625 
L 38.28125 72.90625 
L 38.28125 8.296875 
L 54.390625 8.296875 
L 54.390625 0 
L 12.40625 0 
z
" id="DejaVuSans-31"/>
      </defs>
      <g transform="translate(474.906605 542.435313)scale(0.3 -0.3)">
       <use xlink:href="#DejaVuSans-2212"/>
       <use x="83.789062" xlink:href="#DejaVuSans-31"/>
       <use x="147.412109" xlink:href="#DejaVuSans-30"/>
      </g>
     </g>
    </g>
    <g id="text_6">
     <!-- ln $P_{VAE}$ -->
     <defs>
      <path d="M 9.421875 75.984375 
L 18.40625 75.984375 
L 18.40625 0 
L 9.421875 0 
z
" id="DejaVuSans-6c"/>
      <path d="M 54.890625 33.015625 
L 54.890625 0 
L 45.90625 0 
L 45.90625 32.71875 
Q 45.90625 40.484375 42.875 44.328125 
Q 39.84375 48.1875 33.796875 48.1875 
Q 26.515625 48.1875 22.3125 43.546875 
Q 18.109375 38.921875 18.109375 30.90625 
L 18.109375 0 
L 9.078125 0 
L 9.078125 54.6875 
L 18.109375 54.6875 
L 18.109375 46.1875 
Q 21.34375 51.125 25.703125 53.5625 
Q 30.078125 56 35.796875 56 
Q 45.21875 56 50.046875 50.171875 
Q 54.890625 44.34375 54.890625 33.015625 
z
" id="DejaVuSans-6e"/>
      <path id="DejaVuSans-20"/>
      <path d="M 16.890625 72.90625 
L 39.703125 72.90625 
Q 49.65625 72.90625 54.875 68.265625 
Q 60.109375 63.625 60.109375 54.6875 
Q 60.109375 42.671875 52.390625 35.984375 
Q 44.671875 29.296875 30.71875 29.296875 
L 18.3125 29.296875 
L 12.59375 0 
L 2.6875 0 
z
M 25.203125 64.796875 
L 19.921875 37.40625 
L 32.328125 37.40625 
Q 40.71875 37.40625 45.203125 41.703125 
Q 49.703125 46 49.703125 54 
Q 49.703125 59.125 46.65625 61.953125 
Q 43.609375 64.796875 38.09375 64.796875 
z
" id="DejaVuSans-Oblique-50"/>
      <path d="M 20.609375 0 
L 7.8125 72.90625 
L 17.484375 72.90625 
L 28.078125 10.203125 
L 63.484375 72.90625 
L 74.21875 72.90625 
L 32.078125 0 
z
" id="DejaVuSans-Oblique-56"/>
      <path d="M 36.8125 72.90625 
L 48 72.90625 
L 61.53125 0 
L 51.21875 0 
L 48.1875 18.703125 
L 15.375 18.703125 
L 5.078125 0 
L -5.328125 0 
z
M 40.375 63.1875 
L 19.921875 26.90625 
L 46.6875 26.90625 
z
" id="DejaVuSans-Oblique-41"/>
      <path d="M 16.890625 72.90625 
L 62.984375 72.90625 
L 61.375 64.59375 
L 25.09375 64.59375 
L 20.90625 43.015625 
L 55.71875 43.015625 
L 54.109375 34.71875 
L 19.28125 34.71875 
L 14.203125 8.296875 
L 51.3125 8.296875 
L 49.703125 0 
L 2.6875 0 
z
" id="DejaVuSans-Oblique-45"/>
     </defs>
     <g transform="translate(246.3 575.469687)scale(0.3 -0.3)">
      <use transform="translate(0 0.015625)" xlink:href="#DejaVuSans-6c"/>
      <use transform="translate(27.783203 0.015625)" xlink:href="#DejaVuSans-6e"/>
      <use transform="translate(91.162109 0.015625)" xlink:href="#DejaVuSans-20"/>
      <use transform="translate(122.949219 0.015625)" xlink:href="#DejaVuSans-Oblique-50"/>
      <use transform="translate(183.251953 -16.390625)scale(0.7)" xlink:href="#DejaVuSans-Oblique-56"/>
      <use transform="translate(231.137695 -16.390625)scale(0.7)" xlink:href="#DejaVuSans-Oblique-41"/>
      <use transform="translate(279.023438 -16.390625)scale(0.7)" xlink:href="#DejaVuSans-Oblique-45"/>
     </g>
    </g>
   </g>
   <g id="matplotlib.axis_2">
    <g id="ytick_1">
     <g id="line2d_11">
      <path clip-path="url(#p951aebd81e)" d="M 72 492.48 
L 518.4 492.48 
" style="fill:none;stroke:#b0b0b0;stroke-linecap:square;stroke-width:0.8;"/>
     </g>
     <g id="line2d_12">
      <defs>
       <path d="M 0 0 
L -3.5 0 
" id="m9c6e8e2913" style="stroke:#000000;stroke-width:0.8;"/>
      </defs>
      <g>
       <use style="stroke:#000000;stroke-width:0.8;" x="72" xlink:href="#m9c6e8e2913" y="492.48"/>
      </g>
     </g>
     <g id="text_7">
      <!-- 0.00 -->
      <defs>
       <path d="M 10.6875 12.40625 
L 21 12.40625 
L 21 0 
L 10.6875 0 
z
" id="DejaVuSans-2e"/>
      </defs>
      <g transform="translate(-1.796875 503.877656)scale(0.3 -0.3)">
       <use xlink:href="#DejaVuSans-30"/>
       <use x="63.623047" xlink:href="#DejaVuSans-2e"/>
       <use x="95.410156" xlink:href="#DejaVuSans-30"/>
       <use x="159.033203" xlink:href="#DejaVuSans-30"/>
      </g>
     </g>
    </g>
    <g id="ytick_2">
     <g id="line2d_13">
      <path clip-path="url(#p951aebd81e)" d="M 72 293.510865 
L 518.4 293.510865 
" style="fill:none;stroke:#b0b0b0;stroke-linecap:square;stroke-width:0.8;"/>
     </g>
     <g id="line2d_14">
      <g>
       <use style="stroke:#000000;stroke-width:0.8;" x="72" xlink:href="#m9c6e8e2913" y="293.510865"/>
      </g>
     </g>
     <g id="text_8">
      <!-- 0.05 -->
      <g transform="translate(-1.796875 304.908521)scale(0.3 -0.3)">
       <use xlink:href="#DejaVuSans-30"/>
       <use x="63.623047" xlink:href="#DejaVuSans-2e"/>
       <use x="95.410156" xlink:href="#DejaVuSans-30"/>
       <use x="159.033203" xlink:href="#DejaVuSans-35"/>
      </g>
     </g>
    </g>
    <g id="ytick_3">
     <g id="line2d_15">
      <path clip-path="url(#p951aebd81e)" d="M 72 94.54173 
L 518.4 94.54173 
" style="fill:none;stroke:#b0b0b0;stroke-linecap:square;stroke-width:0.8;"/>
     </g>
     <g id="line2d_16">
      <g>
       <use style="stroke:#000000;stroke-width:0.8;" x="72" xlink:href="#m9c6e8e2913" y="94.54173"/>
      </g>
     </g>
     <g id="text_9">
      <!-- 0.10 -->
      <g transform="translate(-1.796875 105.939386)scale(0.3 -0.3)">
       <use xlink:href="#DejaVuSans-30"/>
       <use x="63.623047" xlink:href="#DejaVuSans-2e"/>
       <use x="95.410156" xlink:href="#DejaVuSans-31"/>
       <use x="159.033203" xlink:href="#DejaVuSans-30"/>
      </g>
     </g>
    </g>
    <g id="text_10">
     <!-- frequency -->
     <defs>
      <path d="M 37.109375 75.984375 
L 37.109375 68.5 
L 28.515625 68.5 
Q 23.6875 68.5 21.796875 66.546875 
Q 19.921875 64.59375 19.921875 59.515625 
L 19.921875 54.6875 
L 34.71875 54.6875 
L 34.71875 47.703125 
L 19.921875 47.703125 
L 19.921875 0 
L 10.890625 0 
L 10.890625 47.703125 
L 2.296875 47.703125 
L 2.296875 54.6875 
L 10.890625 54.6875 
L 10.890625 58.5 
Q 10.890625 67.625 15.140625 71.796875 
Q 19.390625 75.984375 28.609375 75.984375 
z
" id="DejaVuSans-66"/>
      <path d="M 41.109375 46.296875 
Q 39.59375 47.171875 37.8125 47.578125 
Q 36.03125 48 33.890625 48 
Q 26.265625 48 22.1875 43.046875 
Q 18.109375 38.09375 18.109375 28.8125 
L 18.109375 0 
L 9.078125 0 
L 9.078125 54.6875 
L 18.109375 54.6875 
L 18.109375 46.1875 
Q 20.953125 51.171875 25.484375 53.578125 
Q 30.03125 56 36.53125 56 
Q 37.453125 56 38.578125 55.875 
Q 39.703125 55.765625 41.0625 55.515625 
z
" id="DejaVuSans-72"/>
      <path d="M 56.203125 29.59375 
L 56.203125 25.203125 
L 14.890625 25.203125 
Q 15.484375 15.921875 20.484375 11.0625 
Q 25.484375 6.203125 34.421875 6.203125 
Q 39.59375 6.203125 44.453125 7.46875 
Q 49.3125 8.734375 54.109375 11.28125 
L 54.109375 2.78125 
Q 49.265625 0.734375 44.1875 -0.34375 
Q 39.109375 -1.421875 33.890625 -1.421875 
Q 20.796875 -1.421875 13.15625 6.1875 
Q 5.515625 13.8125 5.515625 26.8125 
Q 5.515625 40.234375 12.765625 48.109375 
Q 20.015625 56 32.328125 56 
Q 43.359375 56 49.78125 48.890625 
Q 56.203125 41.796875 56.203125 29.59375 
z
M 47.21875 32.234375 
Q 47.125 39.59375 43.09375 43.984375 
Q 39.0625 48.390625 32.421875 48.390625 
Q 24.90625 48.390625 20.390625 44.140625 
Q 15.875 39.890625 15.1875 32.171875 
z
" id="DejaVuSans-65"/>
      <path d="M 14.796875 27.296875 
Q 14.796875 17.390625 18.875 11.75 
Q 22.953125 6.109375 30.078125 6.109375 
Q 37.203125 6.109375 41.296875 11.75 
Q 45.40625 17.390625 45.40625 27.296875 
Q 45.40625 37.203125 41.296875 42.84375 
Q 37.203125 48.484375 30.078125 48.484375 
Q 22.953125 48.484375 18.875 42.84375 
Q 14.796875 37.203125 14.796875 27.296875 
z
M 45.40625 8.203125 
Q 42.578125 3.328125 38.25 0.953125 
Q 33.9375 -1.421875 27.875 -1.421875 
Q 17.96875 -1.421875 11.734375 6.484375 
Q 5.515625 14.40625 5.515625 27.296875 
Q 5.515625 40.1875 11.734375 48.09375 
Q 17.96875 56 27.875 56 
Q 33.9375 56 38.25 53.625 
Q 42.578125 51.265625 45.40625 46.390625 
L 45.40625 54.6875 
L 54.390625 54.6875 
L 54.390625 -20.796875 
L 45.40625 -20.796875 
z
" id="DejaVuSans-71"/>
      <path d="M 8.5 21.578125 
L 8.5 54.6875 
L 17.484375 54.6875 
L 17.484375 21.921875 
Q 17.484375 14.15625 20.5 10.265625 
Q 23.53125 6.390625 29.59375 6.390625 
Q 36.859375 6.390625 41.078125 11.03125 
Q 45.3125 15.671875 45.3125 23.6875 
L 45.3125 54.6875 
L 54.296875 54.6875 
L 54.296875 0 
L 45.3125 0 
L 45.3125 8.40625 
Q 42.046875 3.421875 37.71875 1 
Q 33.40625 -1.421875 27.6875 -1.421875 
Q 18.265625 -1.421875 13.375 4.4375 
Q 8.5 10.296875 8.5 21.578125 
z
M 31.109375 56 
z
" id="DejaVuSans-75"/>
      <path d="M 48.78125 52.59375 
L 48.78125 44.1875 
Q 44.96875 46.296875 41.140625 47.34375 
Q 37.3125 48.390625 33.40625 48.390625 
Q 24.65625 48.390625 19.8125 42.84375 
Q 14.984375 37.3125 14.984375 27.296875 
Q 14.984375 17.28125 19.8125 11.734375 
Q 24.65625 6.203125 33.40625 6.203125 
Q 37.3125 6.203125 41.140625 7.25 
Q 44.96875 8.296875 48.78125 10.40625 
L 48.78125 2.09375 
Q 45.015625 0.34375 40.984375 -0.53125 
Q 36.96875 -1.421875 32.421875 -1.421875 
Q 20.0625 -1.421875 12.78125 6.34375 
Q 5.515625 14.109375 5.515625 27.296875 
Q 5.515625 40.671875 12.859375 48.328125 
Q 20.21875 56 33.015625 56 
Q 37.15625 56 41.109375 55.140625 
Q 45.0625 54.296875 48.78125 52.59375 
z
" id="DejaVuSans-63"/>
      <path d="M 32.171875 -5.078125 
Q 28.375 -14.84375 24.75 -17.8125 
Q 21.140625 -20.796875 15.09375 -20.796875 
L 7.90625 -20.796875 
L 7.90625 -13.28125 
L 13.1875 -13.28125 
Q 16.890625 -13.28125 18.9375 -11.515625 
Q 21 -9.765625 23.484375 -3.21875 
L 25.09375 0.875 
L 2.984375 54.6875 
L 12.5 54.6875 
L 29.59375 11.921875 
L 46.6875 54.6875 
L 56.203125 54.6875 
z
" id="DejaVuSans-79"/>
     </defs>
     <g transform="translate(-12.035938 366.4425)rotate(-90)scale(0.3 -0.3)">
      <use xlink:href="#DejaVuSans-66"/>
      <use x="35.205078" xlink:href="#DejaVuSans-72"/>
      <use x="76.287109" xlink:href="#DejaVuSans-65"/>
      <use x="137.810547" xlink:href="#DejaVuSans-71"/>
      <use x="201.287109" xlink:href="#DejaVuSans-75"/>
      <use x="264.666016" xlink:href="#DejaVuSans-65"/>
      <use x="326.189453" xlink:href="#DejaVuSans-6e"/>
      <use x="389.568359" xlink:href="#DejaVuSans-63"/>
      <use x="444.548828" xlink:href="#DejaVuSans-79"/>
     </g>
    </g>
   </g>
   <g id="line2d_17">
    <path clip-path="url(#p951aebd81e)" d="M 92.290909 492.48 
L 104.475401 491.802285 
L 116.659893 491.802285 
L 128.844385 491.463428 
L 141.028877 489.76914 
L 153.213369 489.430283 
L 165.397861 490.785713 
L 177.582353 488.41371 
L 189.766845 484.008563 
L 201.951337 486.041708 
L 214.135829 479.603416 
L 226.320321 479.942274 
L 238.504813 475.198269 
L 250.689305 468.082262 
L 262.873797 461.64397 
L 275.058289 451.139388 
L 287.242781 432.502227 
L 299.427273 419.964501 
L 311.611765 394.211333 
L 323.796257 367.78045 
L 335.980749 316.274114 
L 348.165241 271.20607 
L 360.349733 222.749452 
L 372.534225 165.143681 
L 384.718717 99.405331 
L 396.903209 92.628182 
L 409.087701 128.547074 
L 421.272193 169.209971 
L 433.456684 283.404939 
L 445.641176 375.913029 
L 457.825668 449.783958 
L 470.01016 478.247986 
L 482.194652 490.785713 
L 494.379144 492.48 
" style="fill:none;stroke:#000000;stroke-linecap:square;stroke-opacity:0.3;stroke-width:1.5;"/>
   </g>
   <g id="line2d_18">
    <path clip-path="url(#p951aebd81e)" d="M 92.290909 491.802353 
L 104.475401 491.802353 
L 116.659893 490.785882 
L 128.844385 491.463529 
L 141.028877 488.752941 
L 153.213369 490.108235 
L 165.397861 487.058824 
L 177.582353 489.091765 
L 189.766845 484.687059 
L 201.951337 482.992941 
L 214.135829 476.894118 
L 226.320321 480.282353 
L 238.504813 470.795294 
L 250.689305 469.101176 
L 262.873797 456.564706 
L 275.058289 442.672941 
L 287.242781 429.797647 
L 299.427273 418.277647 
L 311.611765 388.122353 
L 323.796257 364.743529 
L 335.980749 324.084706 
L 348.165241 275.294118 
L 360.349733 210.578824 
L 372.534225 156.028235 
L 384.718717 128.922353 
L 396.903209 121.468235 
L 409.087701 132.988235 
L 421.272193 192.96 
L 433.456684 272.583529 
L 445.641176 360 
L 457.825668 439.284706 
L 470.01016 477.571765 
L 482.194652 491.802353 
L 494.379144 492.48 
" style="fill:none;stroke:#000000;stroke-linecap:square;stroke-opacity:0.3;stroke-width:2;"/>
   </g>
   <g id="line2d_19">
    <path clip-path="url(#p951aebd81e)" d="M 92.290909 491.124977 
L 104.475401 491.463733 
L 116.659893 491.124977 
L 128.844385 490.447466 
L 141.028877 490.10871 
L 153.213369 488.414932 
L 165.397861 488.414932 
L 177.582353 488.414932 
L 189.766845 486.721154 
L 201.951337 484.349864 
L 214.135829 479.607285 
L 226.320321 477.574751 
L 238.504813 470.799638 
L 250.689305 464.024524 
L 262.873797 453.861854 
L 275.058289 452.168076 
L 287.242781 431.503981 
L 299.427273 412.872419 
L 311.611765 383.400677 
L 323.796257 347.831332 
L 335.980749 328.183503 
L 348.165241 270.256285 
L 360.349733 211.990311 
L 372.534225 156.434382 
L 384.718717 113.412413 
L 396.903209 95.119607 
L 409.087701 142.884156 
L 421.272193 189.971193 
L 433.456684 288.210335 
L 445.641176 375.948052 
L 457.825668 456.910655 
L 470.01016 484.011108 
L 482.194652 491.802489 
L 494.379144 492.48 
" style="fill:none;stroke:#000000;stroke-linecap:square;stroke-opacity:0.3;stroke-width:2;"/>
   </g>
   <g id="line2d_20">
    <path clip-path="url(#p951aebd81e)" d="M 92.290909 491.124163 
L 104.475401 491.463122 
L 116.659893 490.446244 
L 128.844385 489.768325 
L 141.028877 490.107285 
L 153.213369 487.734569 
L 165.397861 487.05665 
L 177.582353 487.39561 
L 189.766845 486.717691 
L 201.951337 479.938504 
L 214.135829 480.955382 
L 226.320321 475.193073 
L 238.504813 473.837236 
L 250.689305 462.312618 
L 262.873797 453.838635 
L 275.058289 440.61922 
L 287.242781 429.433562 
L 299.427273 412.485595 
L 311.611765 383.335091 
L 323.796257 353.845628 
L 335.980749 309.102995 
L 348.165241 274.868101 
L 360.349733 214.872297 
L 372.534225 171.485501 
L 384.718717 138.606445 
L 396.903209 121.319518 
L 409.087701 128.776624 
L 421.272193 193.517859 
L 433.456684 297.578377 
L 445.641176 361.980653 
L 457.825668 438.924424 
L 470.01016 480.277464 
L 482.194652 490.785203 
L 494.379144 492.141041 
" style="fill:none;stroke:#000000;stroke-linecap:square;stroke-opacity:0.3;stroke-width:2;"/>
   </g>
   <g id="line2d_21">
    <path clip-path="url(#p951aebd81e)" d="M 92.290909 491.801537 
L 104.475401 491.123075 
L 116.659893 490.444612 
L 128.844385 491.123075 
L 141.028877 491.462306 
L 153.213369 490.783843 
L 165.397861 489.087687 
L 177.582353 488.069993 
L 189.766845 484.67768 
L 201.951337 483.999217 
L 214.135829 481.96383 
L 226.320321 476.87536 
L 238.504813 473.143816 
L 250.689305 470.429965 
L 262.873797 464.663033 
L 275.058289 446.005312 
L 287.242781 428.704516 
L 299.427273 411.742951 
L 311.611765 387.318297 
L 323.796257 355.091323 
L 335.980749 320.828962 
L 348.165241 270.961961 
L 360.349733 207.525708 
L 372.534225 168.85334 
L 384.718717 122.378652 
L 396.903209 109.487862 
L 409.087701 114.2371 
L 421.272193 182.761823 
L 433.456684 290.637376 
L 445.641176 378.498283 
L 457.825668 446.005312 
L 470.01016 477.553823 
L 482.194652 491.123075 
L 494.379144 492.48 
" style="fill:none;stroke:#000000;stroke-linecap:square;stroke-opacity:0.3;stroke-width:2;"/>
   </g>
   <g id="line2d_22">
    <path clip-path="url(#p951aebd81e)" d="M 92.290909 492.141448 
L 104.475401 491.464343 
L 116.659893 491.125791 
L 128.844385 491.464343 
L 141.028877 490.448687 
L 153.213369 490.110134 
L 165.397861 488.078821 
L 177.582353 489.094478 
L 189.766845 487.063164 
L 201.951337 486.047508 
L 214.135829 484.016194 
L 226.320321 480.29212 
L 238.504813 478.937911 
L 250.689305 469.458449 
L 262.873797 470.474105 
L 275.058289 455.239255 
L 287.242781 433.910465 
L 299.427273 416.644301 
L 311.611765 383.804735 
L 323.796257 367.554228 
L 335.980749 309.661798 
L 348.165241 283.254724 
L 360.349733 206.064816 
L 372.534225 168.146967 
L 384.718717 104.837701 
L 396.903209 94.681134 
L 409.087701 131.921879 
L 421.272193 168.485519 
L 433.456684 278.514993 
L 445.641176 371.616855 
L 457.825668 444.405584 
L 470.01016 479.953568 
L 482.194652 490.448687 
L 494.379144 492.48 
" style="fill:none;stroke:#000000;stroke-linecap:square;stroke-opacity:0.3;stroke-width:2;"/>
   </g>
   <g id="line2d_23">
    <path clip-path="url(#p951aebd81e)" d="M 92.290909 491.80276 
L 104.475401 491.46414 
L 116.659893 491.46414 
L 128.844385 491.80276 
L 141.028877 490.44828 
L 153.213369 490.7869 
L 165.397861 489.43242 
L 177.582353 487.06208 
L 189.766845 488.75518 
L 201.951337 483.67588 
L 214.135829 482.3214 
L 226.320321 475.210379 
L 238.504813 474.194519 
L 250.689305 470.469699 
L 262.873797 465.390399 
L 275.058289 446.089058 
L 287.242781 441.009758 
L 299.427273 409.856717 
L 311.611765 390.555377 
L 323.796257 371.254036 
L 335.980749 318.767934 
L 348.165241 278.472153 
L 360.349733 218.875031 
L 372.534225 155.891709 
L 384.718717 112.548347 
L 396.903209 120.675227 
L 409.087701 113.564207 
L 421.272193 175.870289 
L 433.456684 283.890073 
L 445.641176 352.968555 
L 457.825668 443.380098 
L 470.01016 481.30554 
L 482.194652 490.7869 
L 494.379144 491.80276 
" style="fill:none;stroke:#000000;stroke-linecap:square;stroke-opacity:0.3;stroke-width:2;"/>
   </g>
   <g id="line2d_24">
    <path clip-path="url(#p951aebd81e)" d="M 92.290909 491.46414 
L 104.475401 491.46414 
L 116.659893 491.12552 
L 128.844385 490.7869 
L 141.028877 491.80276 
L 153.213369 491.12552 
L 165.397861 488.41656 
L 177.582353 486.04622 
L 189.766845 487.73932 
L 201.951337 481.98278 
L 214.135829 484.35312 
L 226.320321 479.27382 
L 238.504813 474.533139 
L 250.689305 468.776599 
L 262.873797 452.861459 
L 275.058289 440.671138 
L 287.242781 434.914598 
L 299.427273 411.211197 
L 311.611765 382.089876 
L 323.796257 365.497496 
L 335.980749 313.688634 
L 348.165241 278.472153 
L 360.349733 216.166071 
L 372.534225 173.499949 
L 384.718717 133.542788 
L 396.903209 93.247007 
L 409.087701 113.564207 
L 421.272193 186.02889 
L 433.456684 281.181113 
L 445.641176 377.010576 
L 457.825668 445.073198 
L 470.01016 480.96692 
L 482.194652 491.12552 
L 494.379144 492.14138 
" style="fill:none;stroke:#000000;stroke-linecap:square;stroke-opacity:0.3;stroke-width:2;"/>
   </g>
   <g id="line2d_25">
    <path clip-path="url(#p951aebd81e)" d="M 92.290909 491.463937 
L 104.475401 491.125249 
L 116.659893 491.802624 
L 128.844385 490.447873 
L 141.028877 491.802624 
L 153.213369 490.109185 
L 165.397861 489.093122 
L 177.582353 486.722307 
L 189.766845 485.367556 
L 201.951337 481.64199 
L 214.135829 480.287238 
L 226.320321 480.625926 
L 238.504813 474.190858 
L 250.689305 469.787916 
L 262.873797 451.160086 
L 275.058289 454.546964 
L 287.242781 437.95126 
L 299.427273 414.920488 
L 311.611765 385.11596 
L 323.796257 344.473421 
L 335.980749 316.362332 
L 348.165241 283.170925 
L 360.349733 204.59535 
L 372.534225 179.871139 
L 384.718717 109.424072 
L 396.903209 114.165701 
L 409.087701 114.843077 
L 421.272193 196.466842 
L 433.456684 288.251242 
L 445.641176 364.456003 
L 457.825668 443.708953 
L 470.01016 479.609863 
L 482.194652 491.802624 
L 494.379144 492.48 
" style="fill:none;stroke:#000000;stroke-linecap:square;stroke-opacity:0.3;stroke-width:2;"/>
   </g>
   <g id="line2d_26">
    <path clip-path="url(#p951aebd81e)" d="M 92.290909 491.802353 
L 104.475401 491.124706 
L 116.659893 491.802353 
L 128.844385 491.124706 
L 141.028877 489.430588 
L 153.213369 488.752941 
L 165.397861 487.736471 
L 177.582353 485.364706 
L 189.766845 485.364706 
L 201.951337 483.670588 
L 214.135829 482.654118 
L 226.320321 479.265882 
L 238.504813 464.696471 
L 250.689305 469.778824 
L 262.873797 452.837647 
L 275.058289 450.465882 
L 287.242781 434.88 
L 299.427273 410.823529 
L 311.611765 393.543529 
L 323.796257 358.983529 
L 335.980749 314.258824 
L 348.165241 273.938824 
L 360.349733 218.371765 
L 372.534225 188.894118 
L 384.718717 113.675294 
L 396.903209 89.28 
L 409.087701 130.955294 
L 421.272193 194.315294 
L 433.456684 282.748235 
L 445.641176 369.148235 
L 457.825668 441.995294 
L 470.01016 475.877647 
L 482.194652 491.802353 
L 494.379144 492.48 
" style="fill:none;stroke:#000000;stroke-linecap:square;stroke-opacity:0.3;stroke-width:2;"/>
   </g>
   <g id="line2d_27">
    <path clip-path="url(#p951aebd81e)" d="M 92.290909 492.14121 
L 104.475401 492.14121 
L 116.659893 492.48 
L 128.844385 490.786052 
L 141.028877 490.108473 
L 153.213369 489.092104 
L 165.397861 488.753314 
L 177.582353 489.430894 
L 189.766845 486.381787 
L 201.951337 485.704208 
L 214.135829 479.944785 
L 226.320321 477.912048 
L 238.504813 473.168993 
L 250.689305 458.601041 
L 262.873797 460.294989 
L 275.058289 447.420984 
L 287.242781 429.803925 
L 299.427273 417.26871 
L 311.611765 386.100068 
L 323.796257 353.576267 
L 335.980749 324.779152 
L 348.165241 267.52371 
L 360.349733 222.803484 
L 372.534225 165.548043 
L 384.718717 112.696867 
L 396.903209 97.451335 
L 409.087701 134.71819 
L 421.272193 194.683948 
L 433.456684 281.752873 
L 445.641176 374.581222 
L 457.825668 442.33914 
L 470.01016 478.589627 
L 482.194652 491.124842 
L 494.379144 492.14121 
" style="fill:none;stroke:#000000;stroke-linecap:square;stroke-opacity:0.3;stroke-width:2;"/>
   </g>
   <g id="line2d_28">
    <path clip-path="url(#p951aebd81e)" d="M 92.290909 491.802353 
L 104.475401 491.802353 
L 116.659893 490.785882 
L 128.844385 490.785882 
L 141.028877 487.736471 
L 153.213369 490.785882 
L 165.397861 489.769412 
L 177.582353 486.042353 
L 189.766845 486.381176 
L 201.951337 482.654118 
L 214.135829 482.315294 
L 226.320321 476.894118 
L 238.504813 475.2 
L 250.689305 468.084706 
L 262.873797 459.952941 
L 275.058289 452.837647 
L 287.242781 434.88 
L 299.427273 411.84 
L 311.611765 388.8 
L 323.796257 368.470588 
L 335.980749 319.002353 
L 348.165241 272.583529 
L 360.349733 234.296471 
L 372.534225 162.804706 
L 384.718717 112.997647 
L 396.903209 111.981176 
L 409.087701 99.444706 
L 421.272193 181.44 
L 433.456684 281.392941 
L 445.641176 373.214118 
L 457.825668 444.367059 
L 470.01016 478.249412 
L 482.194652 489.769412 
L 494.379144 492.48 
" style="fill:none;stroke:#000000;stroke-linecap:square;stroke-opacity:0.3;stroke-width:2;"/>
   </g>
   <g id="line2d_29">
    <path clip-path="url(#p951aebd81e)" d="M 92.290909 491.014352 
L 100.745455 491.991451 
L 109.2 490.525803 
L 117.654545 491.502902 
L 126.109091 490.525803 
L 134.563636 489.548705 
L 143.018182 491.502902 
L 151.472727 491.014352 
L 159.927273 489.060156 
L 168.381818 487.105959 
L 176.836364 486.128861 
L 185.290909 487.594508 
L 193.745455 487.105959 
L 202.2 480.754819 
L 210.654545 483.197565 
L 219.109091 483.686115 
L 227.563636 474.892229 
L 236.018182 470.983836 
L 244.472727 472.938032 
L 252.927273 460.724303 
L 261.381818 450.953319 
L 269.836364 456.32736 
L 278.290909 431.411351 
L 286.745455 426.52586 
L 295.2 403.564048 
L 303.654545 408.44954 
L 312.109091 371.80835 
L 320.563636 354.22058 
L 329.018182 331.258768 
L 337.472727 304.388562 
L 345.927273 259.930586 
L 354.381818 231.106184 
L 362.836364 194.953544 
L 371.290909 156.358158 
L 379.745455 142.678781 
L 388.2 128.022305 
L 396.654545 135.350543 
L 405.109091 109.457436 
L 413.563636 164.174945 
L 422.018182 229.151987 
L 430.472727 273.121414 
L 438.927273 336.632809 
L 447.381818 391.350318 
L 455.836364 441.182335 
L 464.290909 471.960934 
L 472.745455 484.174664 
L 481.2 491.991451 
L 489.654545 491.991451 
L 498.109091 492.48 
" style="fill:none;stroke:#1f77b4;stroke-linecap:square;stroke-width:3;"/>
   </g>
   <g id="line2d_30">
    <path clip-path="url(#p951aebd81e)" d="M 92.290909 492.48 
L 104.475401 492.48 
L 116.659893 492.141752 
L 128.844385 492.48 
L 141.028877 492.48 
L 153.213369 492.48 
L 165.397861 492.141752 
L 177.582353 492.141752 
L 189.766845 492.141752 
L 201.951337 490.450515 
L 214.135829 490.788762 
L 226.320321 490.788762 
L 238.504813 491.12701 
L 250.689305 485.376802 
L 262.873797 480.979584 
L 275.058289 468.464425 
L 287.242781 458.993495 
L 299.427273 443.772356 
L 311.611765 417.727296 
L 323.796257 364.284186 
L 335.980749 312.532314 
L 348.165241 268.221888 
L 360.349733 210.38156 
L 372.534225 143.070302 
L 384.718717 113.642767 
L 396.903209 96.392143 
L 409.087701 105.186579 
L 421.272193 170.130104 
L 433.456684 246.235799 
L 445.641176 321.664998 
L 457.825668 413.668326 
L 470.01016 468.126178 
L 482.194652 486.391544 
L 494.379144 492.48 
" style="fill:none;stroke:#ff7f0e;stroke-linecap:square;stroke-width:3;"/>
   </g>
   <g id="line2d_31">
    <path clip-path="url(#p951aebd81e)" d="M 92.290909 492.48 
L 104.475401 492.48 
L 116.659893 492.141752 
L 128.844385 492.48 
L 141.028877 492.48 
L 153.213369 492.48 
L 165.397861 492.141752 
L 177.582353 492.141752 
L 189.766845 492.141752 
L 201.951337 490.450515 
L 214.135829 490.788762 
L 226.320321 490.788762 
L 238.504813 491.12701 
L 250.689305 485.376802 
L 262.873797 480.979584 
L 275.058289 468.464425 
L 287.242781 458.993495 
L 299.427273 443.772356 
L 311.611765 417.727296 
L 323.796257 364.284186 
L 335.980749 312.532314 
L 348.165241 268.221888 
L 360.349733 210.38156 
L 372.534225 143.070302 
L 384.718717 113.642767 
L 396.903209 96.392143 
L 409.087701 105.186579 
L 421.272193 170.130104 
L 433.456684 246.235799 
L 445.641176 321.664998 
L 457.825668 413.668326 
L 470.01016 468.126178 
L 482.194652 486.391544 
L 494.379144 492.48 
" style="fill:none;stroke:#1f77b4;stroke-linecap:square;stroke-opacity:0;stroke-width:3;"/>
   </g>
   <g id="line2d_32">
    <path clip-path="url(#p951aebd81e)" d="M 92.290909 490.782311 
L 104.475401 488.066009 
L 116.659893 489.084622 
L 128.844385 488.066009 
L 141.028877 483.991556 
L 153.213369 482.633405 
L 165.397861 481.275253 
L 177.582353 478.558951 
L 189.766845 472.447271 
L 201.951337 469.051894 
L 214.135829 464.97744 
L 226.320321 452.075005 
L 238.504813 441.888872 
L 250.689305 437.135343 
L 262.873797 413.367699 
L 275.058289 399.786188 
L 287.242781 377.716233 
L 299.427273 347.157833 
L 311.611765 315.241283 
L 323.796257 299.962083 
L 335.980749 259.896626 
L 348.165241 247.673266 
L 360.349733 204.891506 
L 372.534225 197.421675 
L 384.718717 175.35172 
L 396.903209 202.514742 
L 409.087701 231.375453 
L 421.272193 324.408802 
L 433.456684 360.060269 
L 445.641176 437.474881 
L 457.825668 472.786809 
L 470.01016 490.103236 
L 482.194652 492.140462 
L 494.379144 492.48 
" style="fill:none;stroke:#d62728;stroke-linecap:square;stroke-width:3;"/>
   </g>
   <g id="patch_3">
    <path d="M 72 512.64 
L 72 69.12 
" style="fill:none;stroke:#000000;stroke-linecap:square;stroke-linejoin:miter;stroke-width:0.8;"/>
   </g>
   <g id="patch_4">
    <path d="M 518.4 512.64 
L 518.4 69.12 
" style="fill:none;stroke:#000000;stroke-linecap:square;stroke-linejoin:miter;stroke-width:0.8;"/>
   </g>
   <g id="patch_5">
    <path d="M 72 512.64 
L 518.4 512.64 
" style="fill:none;stroke:#000000;stroke-linecap:square;stroke-linejoin:miter;stroke-width:0.8;"/>
   </g>
   <g id="patch_6">
    <path d="M 72 69.12 
L 518.4 69.12 
" style="fill:none;stroke:#000000;stroke-linecap:square;stroke-linejoin:miter;stroke-width:0.8;"/>
   </g>
   <g id="legend_1">
    <g id="patch_7">
     <path d="M 86 202.545 
L 228.1625 202.545 
Q 232.1625 202.545 232.1625 198.545 
L 232.1625 83.12 
Q 232.1625 79.12 228.1625 79.12 
L 86 79.12 
Q 82 79.12 82 83.12 
L 82 198.545 
Q 82 202.545 86 202.545 
z
" style="fill:#ffffff;opacity:0.8;stroke:#cccccc;stroke-linejoin:miter;"/>
    </g>
    <g id="line2d_33">
     <path d="M 90 95.316875 
L 130 95.316875 
" style="fill:none;stroke:#000000;stroke-linecap:square;stroke-opacity:0.3;stroke-width:1.5;"/>
    </g>
    <g id="line2d_34"/>
    <g id="text_11">
     <!-- data -->
     <defs>
      <path d="M 45.40625 46.390625 
L 45.40625 75.984375 
L 54.390625 75.984375 
L 54.390625 0 
L 45.40625 0 
L 45.40625 8.203125 
Q 42.578125 3.328125 38.25 0.953125 
Q 33.9375 -1.421875 27.875 -1.421875 
Q 17.96875 -1.421875 11.734375 6.484375 
Q 5.515625 14.40625 5.515625 27.296875 
Q 5.515625 40.1875 11.734375 48.09375 
Q 17.96875 56 27.875 56 
Q 33.9375 56 38.25 53.625 
Q 42.578125 51.265625 45.40625 46.390625 
z
M 14.796875 27.296875 
Q 14.796875 17.390625 18.875 11.75 
Q 22.953125 6.109375 30.078125 6.109375 
Q 37.203125 6.109375 41.296875 11.75 
Q 45.40625 17.390625 45.40625 27.296875 
Q 45.40625 37.203125 41.296875 42.84375 
Q 37.203125 48.484375 30.078125 48.484375 
Q 22.953125 48.484375 18.875 42.84375 
Q 14.796875 37.203125 14.796875 27.296875 
z
" id="DejaVuSans-64"/>
      <path d="M 34.28125 27.484375 
Q 23.390625 27.484375 19.1875 25 
Q 14.984375 22.515625 14.984375 16.5 
Q 14.984375 11.71875 18.140625 8.90625 
Q 21.296875 6.109375 26.703125 6.109375 
Q 34.1875 6.109375 38.703125 11.40625 
Q 43.21875 16.703125 43.21875 25.484375 
L 43.21875 27.484375 
z
M 52.203125 31.203125 
L 52.203125 0 
L 43.21875 0 
L 43.21875 8.296875 
Q 40.140625 3.328125 35.546875 0.953125 
Q 30.953125 -1.421875 24.3125 -1.421875 
Q 15.921875 -1.421875 10.953125 3.296875 
Q 6 8.015625 6 15.921875 
Q 6 25.140625 12.171875 29.828125 
Q 18.359375 34.515625 30.609375 34.515625 
L 43.21875 34.515625 
L 43.21875 35.40625 
Q 43.21875 41.609375 39.140625 45 
Q 35.0625 48.390625 27.6875 48.390625 
Q 23 48.390625 18.546875 47.265625 
Q 14.109375 46.140625 10.015625 43.890625 
L 10.015625 52.203125 
Q 14.9375 54.109375 19.578125 55.046875 
Q 24.21875 56 28.609375 56 
Q 40.484375 56 46.34375 49.84375 
Q 52.203125 43.703125 52.203125 31.203125 
z
" id="DejaVuSans-61"/>
      <path d="M 18.3125 70.21875 
L 18.3125 54.6875 
L 36.8125 54.6875 
L 36.8125 47.703125 
L 18.3125 47.703125 
L 18.3125 18.015625 
Q 18.3125 11.328125 20.140625 9.421875 
Q 21.96875 7.515625 27.59375 7.515625 
L 36.8125 7.515625 
L 36.8125 0 
L 27.59375 0 
Q 17.1875 0 13.234375 3.875 
Q 9.28125 7.765625 9.28125 18.015625 
L 9.28125 47.703125 
L 2.6875 47.703125 
L 2.6875 54.6875 
L 9.28125 54.6875 
L 9.28125 70.21875 
z
" id="DejaVuSans-74"/>
     </defs>
     <g transform="translate(146 102.316875)scale(0.2 -0.2)">
      <use xlink:href="#DejaVuSans-64"/>
      <use x="63.476562" xlink:href="#DejaVuSans-61"/>
      <use x="124.755859" xlink:href="#DejaVuSans-74"/>
      <use x="163.964844" xlink:href="#DejaVuSans-61"/>
     </g>
    </g>
    <g id="line2d_35">
     <path d="M 90 124.673125 
L 130 124.673125 
" style="fill:none;stroke:#1f77b4;stroke-linecap:square;stroke-width:3;"/>
    </g>
    <g id="line2d_36"/>
    <g id="text_12">
     <!-- SONIA -->
     <defs>
      <path d="M 53.515625 70.515625 
L 53.515625 60.890625 
Q 47.90625 63.578125 42.921875 64.890625 
Q 37.9375 66.21875 33.296875 66.21875 
Q 25.25 66.21875 20.875 63.09375 
Q 16.5 59.96875 16.5 54.203125 
Q 16.5 49.359375 19.40625 46.890625 
Q 22.3125 44.4375 30.421875 42.921875 
L 36.375 41.703125 
Q 47.40625 39.59375 52.65625 34.296875 
Q 57.90625 29 57.90625 20.125 
Q 57.90625 9.515625 50.796875 4.046875 
Q 43.703125 -1.421875 29.984375 -1.421875 
Q 24.8125 -1.421875 18.96875 -0.25 
Q 13.140625 0.921875 6.890625 3.21875 
L 6.890625 13.375 
Q 12.890625 10.015625 18.65625 8.296875 
Q 24.421875 6.59375 29.984375 6.59375 
Q 38.421875 6.59375 43.015625 9.90625 
Q 47.609375 13.234375 47.609375 19.390625 
Q 47.609375 24.75 44.3125 27.78125 
Q 41.015625 30.8125 33.5 32.328125 
L 27.484375 33.5 
Q 16.453125 35.6875 11.515625 40.375 
Q 6.59375 45.0625 6.59375 53.421875 
Q 6.59375 63.09375 13.40625 68.65625 
Q 20.21875 74.21875 32.171875 74.21875 
Q 37.3125 74.21875 42.625 73.28125 
Q 47.953125 72.359375 53.515625 70.515625 
z
" id="DejaVuSans-53"/>
      <path d="M 39.40625 66.21875 
Q 28.65625 66.21875 22.328125 58.203125 
Q 16.015625 50.203125 16.015625 36.375 
Q 16.015625 22.609375 22.328125 14.59375 
Q 28.65625 6.59375 39.40625 6.59375 
Q 50.140625 6.59375 56.421875 14.59375 
Q 62.703125 22.609375 62.703125 36.375 
Q 62.703125 50.203125 56.421875 58.203125 
Q 50.140625 66.21875 39.40625 66.21875 
z
M 39.40625 74.21875 
Q 54.734375 74.21875 63.90625 63.9375 
Q 73.09375 53.65625 73.09375 36.375 
Q 73.09375 19.140625 63.90625 8.859375 
Q 54.734375 -1.421875 39.40625 -1.421875 
Q 24.03125 -1.421875 14.8125 8.828125 
Q 5.609375 19.09375 5.609375 36.375 
Q 5.609375 53.65625 14.8125 63.9375 
Q 24.03125 74.21875 39.40625 74.21875 
z
" id="DejaVuSans-4f"/>
      <path d="M 9.8125 72.90625 
L 23.09375 72.90625 
L 55.421875 11.921875 
L 55.421875 72.90625 
L 64.984375 72.90625 
L 64.984375 0 
L 51.703125 0 
L 19.390625 60.984375 
L 19.390625 0 
L 9.8125 0 
z
" id="DejaVuSans-4e"/>
      <path d="M 9.8125 72.90625 
L 19.671875 72.90625 
L 19.671875 0 
L 9.8125 0 
z
" id="DejaVuSans-49"/>
      <path d="M 34.1875 63.1875 
L 20.796875 26.90625 
L 47.609375 26.90625 
z
M 28.609375 72.90625 
L 39.796875 72.90625 
L 67.578125 0 
L 57.328125 0 
L 50.6875 18.703125 
L 17.828125 18.703125 
L 11.1875 0 
L 0.78125 0 
z
" id="DejaVuSans-41"/>
     </defs>
     <g transform="translate(146 131.673125)scale(0.2 -0.2)">
      <use xlink:href="#DejaVuSans-53"/>
      <use x="63.476562" xlink:href="#DejaVuSans-4f"/>
      <use x="142.1875" xlink:href="#DejaVuSans-4e"/>
      <use x="216.992188" xlink:href="#DejaVuSans-49"/>
      <use x="246.484375" xlink:href="#DejaVuSans-41"/>
     </g>
    </g>
    <g id="line2d_37">
     <path d="M 90 154.029375 
L 130 154.029375 
" style="fill:none;stroke:#ff7f0e;stroke-linecap:square;stroke-width:3;"/>
    </g>
    <g id="line2d_38"/>
    <g id="text_13">
     <!-- basic -->
     <defs>
      <path d="M 48.6875 27.296875 
Q 48.6875 37.203125 44.609375 42.84375 
Q 40.53125 48.484375 33.40625 48.484375 
Q 26.265625 48.484375 22.1875 42.84375 
Q 18.109375 37.203125 18.109375 27.296875 
Q 18.109375 17.390625 22.1875 11.75 
Q 26.265625 6.109375 33.40625 6.109375 
Q 40.53125 6.109375 44.609375 11.75 
Q 48.6875 17.390625 48.6875 27.296875 
z
M 18.109375 46.390625 
Q 20.953125 51.265625 25.265625 53.625 
Q 29.59375 56 35.59375 56 
Q 45.5625 56 51.78125 48.09375 
Q 58.015625 40.1875 58.015625 27.296875 
Q 58.015625 14.40625 51.78125 6.484375 
Q 45.5625 -1.421875 35.59375 -1.421875 
Q 29.59375 -1.421875 25.265625 0.953125 
Q 20.953125 3.328125 18.109375 8.203125 
L 18.109375 0 
L 9.078125 0 
L 9.078125 75.984375 
L 18.109375 75.984375 
z
" id="DejaVuSans-62"/>
      <path d="M 44.28125 53.078125 
L 44.28125 44.578125 
Q 40.484375 46.53125 36.375 47.5 
Q 32.28125 48.484375 27.875 48.484375 
Q 21.1875 48.484375 17.84375 46.4375 
Q 14.5 44.390625 14.5 40.28125 
Q 14.5 37.15625 16.890625 35.375 
Q 19.28125 33.59375 26.515625 31.984375 
L 29.59375 31.296875 
Q 39.15625 29.25 43.1875 25.515625 
Q 47.21875 21.78125 47.21875 15.09375 
Q 47.21875 7.46875 41.1875 3.015625 
Q 35.15625 -1.421875 24.609375 -1.421875 
Q 20.21875 -1.421875 15.453125 -0.5625 
Q 10.6875 0.296875 5.421875 2 
L 5.421875 11.28125 
Q 10.40625 8.6875 15.234375 7.390625 
Q 20.0625 6.109375 24.8125 6.109375 
Q 31.15625 6.109375 34.5625 8.28125 
Q 37.984375 10.453125 37.984375 14.40625 
Q 37.984375 18.0625 35.515625 20.015625 
Q 33.0625 21.96875 24.703125 23.78125 
L 21.578125 24.515625 
Q 13.234375 26.265625 9.515625 29.90625 
Q 5.8125 33.546875 5.8125 39.890625 
Q 5.8125 47.609375 11.28125 51.796875 
Q 16.75 56 26.8125 56 
Q 31.78125 56 36.171875 55.265625 
Q 40.578125 54.546875 44.28125 53.078125 
z
" id="DejaVuSans-73"/>
      <path d="M 9.421875 54.6875 
L 18.40625 54.6875 
L 18.40625 0 
L 9.421875 0 
z
M 9.421875 75.984375 
L 18.40625 75.984375 
L 18.40625 64.59375 
L 9.421875 64.59375 
z
" id="DejaVuSans-69"/>
     </defs>
     <g transform="translate(146 161.029375)scale(0.2 -0.2)">
      <use xlink:href="#DejaVuSans-62"/>
      <use x="63.476562" xlink:href="#DejaVuSans-61"/>
      <use x="124.755859" xlink:href="#DejaVuSans-73"/>
      <use x="176.855469" xlink:href="#DejaVuSans-69"/>
      <use x="204.638672" xlink:href="#DejaVuSans-63"/>
     </g>
    </g>
    <g id="line2d_39">
     <path d="M 90 183.385625 
L 130 183.385625 
" style="fill:none;stroke:#d62728;stroke-linecap:square;stroke-width:3;"/>
    </g>
    <g id="line2d_40"/>
    <g id="text_14">
     <!-- OLGA.Q -->
     <defs>
      <path d="M 9.8125 72.90625 
L 19.671875 72.90625 
L 19.671875 8.296875 
L 55.171875 8.296875 
L 55.171875 0 
L 9.8125 0 
z
" id="DejaVuSans-4c"/>
      <path d="M 59.515625 10.40625 
L 59.515625 29.984375 
L 43.40625 29.984375 
L 43.40625 38.09375 
L 69.28125 38.09375 
L 69.28125 6.78125 
Q 63.578125 2.734375 56.6875 0.65625 
Q 49.8125 -1.421875 42 -1.421875 
Q 24.90625 -1.421875 15.25 8.5625 
Q 5.609375 18.5625 5.609375 36.375 
Q 5.609375 54.25 15.25 64.234375 
Q 24.90625 74.21875 42 74.21875 
Q 49.125 74.21875 55.546875 72.453125 
Q 61.96875 70.703125 67.390625 67.28125 
L 67.390625 56.78125 
Q 61.921875 61.421875 55.765625 63.765625 
Q 49.609375 66.109375 42.828125 66.109375 
Q 29.4375 66.109375 22.71875 58.640625 
Q 16.015625 51.171875 16.015625 36.375 
Q 16.015625 21.625 22.71875 14.15625 
Q 29.4375 6.6875 42.828125 6.6875 
Q 48.046875 6.6875 52.140625 7.59375 
Q 56.25 8.5 59.515625 10.40625 
z
" id="DejaVuSans-47"/>
      <path d="M 39.40625 66.21875 
Q 28.65625 66.21875 22.328125 58.203125 
Q 16.015625 50.203125 16.015625 36.375 
Q 16.015625 22.609375 22.328125 14.59375 
Q 28.65625 6.59375 39.40625 6.59375 
Q 50.140625 6.59375 56.421875 14.59375 
Q 62.703125 22.609375 62.703125 36.375 
Q 62.703125 50.203125 56.421875 58.203125 
Q 50.140625 66.21875 39.40625 66.21875 
z
M 53.21875 1.3125 
L 66.21875 -12.890625 
L 54.296875 -12.890625 
L 43.5 -1.21875 
Q 41.890625 -1.3125 41.03125 -1.359375 
Q 40.1875 -1.421875 39.40625 -1.421875 
Q 24.03125 -1.421875 14.8125 8.859375 
Q 5.609375 19.140625 5.609375 36.375 
Q 5.609375 53.65625 14.8125 63.9375 
Q 24.03125 74.21875 39.40625 74.21875 
Q 54.734375 74.21875 63.90625 63.9375 
Q 73.09375 53.65625 73.09375 36.375 
Q 73.09375 23.6875 67.984375 14.640625 
Q 62.890625 5.609375 53.21875 1.3125 
z
" id="DejaVuSans-51"/>
     </defs>
     <g transform="translate(146 190.385625)scale(0.2 -0.2)">
      <use xlink:href="#DejaVuSans-4f"/>
      <use x="78.710938" xlink:href="#DejaVuSans-4c"/>
      <use x="134.423828" xlink:href="#DejaVuSans-47"/>
      <use x="211.914062" xlink:href="#DejaVuSans-41"/>
      <use x="280.306641" xlink:href="#DejaVuSans-2e"/>
      <use x="312.09375" xlink:href="#DejaVuSans-51"/>
     </g>
    </g>
   </g>
  </g>
 </g>
 <defs>
  <clipPath id="p951aebd81e">
   <rect height="443.52" width="446.4" x="72" y="69.12"/>
  </clipPath>
 </defs>
</svg>
